<svg xmlns="http://www.w3.org/2000/svg" xmlns:xlink="http://www.w3.org/1999/xlink" width="500" zoomAndPan="magnify" viewBox="0 0 375 374.999991" height="500" preserveAspectRatio="xMidYMid meet" version="1.0"><defs><clipPath id="252ff2dc6d"><path d="M 86.171875 290.394531 L 177.761719 290.394531 L 177.761719 352.097656 L 86.171875 352.097656 Z M 86.171875 290.394531 " clip-rule="nonzero"/></clipPath><clipPath id="8aad2d8c08"><path d="M 116.710938 349.539062 C 121.40625 351.085938 126.746094 352.097656 131.984375 352.097656 C 137.222656 352.097656 142.261719 351.230469 146.910156 349.683594 C 147.007812 349.636719 147.105469 349.636719 147.207031 349.589844 C 164.652344 343.410156 177.5 327.09375 177.746094 309.074219 L 177.746094 291.894531 C 177.746094 291.066406 177.074219 290.394531 176.246094 290.394531 L 87.671875 290.394531 C 86.839844 290.394531 86.171875 291.066406 86.171875 291.894531 L 86.171875 309.0625 C 86.417969 327.1875 99.070312 343.507812 116.710938 349.539062 Z M 116.710938 349.539062 " clip-rule="nonzero"/></clipPath><clipPath id="caad0768c5"><path d="M 0.171875 0.394531 L 91.761719 0.394531 L 91.761719 62.097656 L 0.171875 62.097656 Z M 0.171875 0.394531 " clip-rule="nonzero"/></clipPath><clipPath id="57c18a8abe"><path d="M 30.710938 59.539062 C 35.40625 61.085938 40.746094 62.097656 45.984375 62.097656 C 51.222656 62.097656 56.261719 61.230469 60.910156 59.683594 C 61.007812 59.636719 61.105469 59.636719 61.207031 59.589844 C 78.652344 53.410156 91.5 37.09375 91.746094 19.074219 L 91.746094 1.894531 C 91.746094 1.066406 91.074219 0.394531 90.246094 0.394531 L 1.671875 0.394531 C 0.839844 0.394531 0.171875 1.066406 0.171875 1.894531 L 0.171875 19.0625 C 0.417969 37.1875 13.070312 53.507812 30.710938 59.539062 Z M 30.710938 59.539062 " clip-rule="nonzero"/></clipPath><clipPath id="dbd4e83025"><rect x="0" width="92" y="0" height="63"/></clipPath><clipPath id="bad931c948"><path d="M 71.890625 6.34375 L 124.328125 6.34375 L 124.328125 70.757812 L 71.890625 70.757812 Z M 71.890625 6.34375 " clip-rule="nonzero"/></clipPath><clipPath id="221c8844a2"><path d="M 101.273438 8.539062 L 123.875 62.972656 C 124.582031 64.671875 124.394531 66.613281 123.371094 68.144531 C 122.347656 69.675781 120.628906 70.59375 118.789062 70.59375 L 77.429688 70.59375 C 75.589844 70.59375 73.871094 69.675781 72.847656 68.144531 C 71.828125 66.613281 71.636719 64.671875 72.34375 62.972656 L 94.945312 8.539062 C 95.476562 7.261719 96.726562 6.425781 98.109375 6.425781 C 99.496094 6.425781 100.742188 7.261719 101.273438 8.539062 Z M 101.273438 8.539062 " clip-rule="nonzero"/></clipPath><clipPath id="c6019e0a17"><path d="M 0.890625 0.34375 L 53.328125 0.34375 L 53.328125 64.757812 L 0.890625 64.757812 Z M 0.890625 0.34375 " clip-rule="nonzero"/></clipPath><clipPath id="5b137b3bf7"><path d="M 30.273438 2.539062 L 52.875 56.972656 C 53.582031 58.671875 53.394531 60.613281 52.371094 62.144531 C 51.347656 63.675781 49.628906 64.59375 47.789062 64.59375 L 6.429688 64.59375 C 4.589844 64.59375 2.871094 63.675781 1.847656 62.144531 C 0.828125 60.613281 0.636719 58.671875 1.34375 56.972656 L 23.945312 2.539062 C 24.476562 1.261719 25.726562 0.425781 27.109375 0.425781 C 28.496094 0.425781 29.742188 1.261719 30.273438 2.539062 Z M 30.273438 2.539062 " clip-rule="nonzero"/></clipPath><clipPath id="7e7ed7c427"><rect x="0" width="54" y="0" height="65"/></clipPath><clipPath id="e3821dc69f"><path d="M 37.839844 6.34375 L 90.277344 6.34375 L 90.277344 70.757812 L 37.839844 70.757812 Z M 37.839844 6.34375 " clip-rule="nonzero"/></clipPath><clipPath id="1d8209d77c"><path d="M 67.222656 8.539062 L 89.824219 62.972656 C 90.53125 64.671875 90.339844 66.613281 89.316406 68.144531 C 88.296875 69.675781 86.578125 70.59375 84.738281 70.59375 L 43.375 70.59375 C 41.535156 70.59375 39.816406 69.675781 38.796875 68.144531 C 37.773438 66.613281 37.585938 64.671875 38.289062 62.972656 L 60.894531 8.539062 C 61.425781 7.261719 62.671875 6.425781 64.058594 6.425781 C 65.441406 6.425781 66.691406 7.261719 67.222656 8.539062 Z M 67.222656 8.539062 " clip-rule="nonzero"/></clipPath><clipPath id="0138e0b24d"><path d="M 0.839844 0.34375 L 53.277344 0.34375 L 53.277344 64.757812 L 0.839844 64.757812 Z M 0.839844 0.34375 " clip-rule="nonzero"/></clipPath><clipPath id="556e08e96b"><path d="M 30.222656 2.539062 L 52.824219 56.972656 C 53.53125 58.671875 53.339844 60.613281 52.316406 62.144531 C 51.296875 63.675781 49.578125 64.59375 47.738281 64.59375 L 6.375 64.59375 C 4.535156 64.59375 2.816406 63.675781 1.796875 62.144531 C 0.773438 60.613281 0.585938 58.671875 1.289062 56.972656 L 23.894531 2.539062 C 24.425781 1.261719 25.671875 0.425781 27.058594 0.425781 C 28.441406 0.425781 29.691406 1.261719 30.222656 2.539062 Z M 30.222656 2.539062 " clip-rule="nonzero"/></clipPath><clipPath id="9ea4ae434d"><rect x="0" width="54" y="0" height="65"/></clipPath><clipPath id="76b7afd902"><path d="M 3.464844 6.34375 L 55.902344 6.34375 L 55.902344 70.757812 L 3.464844 70.757812 Z M 3.464844 6.34375 " clip-rule="nonzero"/></clipPath><clipPath id="f3aac82c31"><path d="M 32.847656 8.539062 L 55.449219 62.972656 C 56.15625 64.671875 55.964844 66.613281 54.945312 68.144531 C 53.921875 69.675781 52.203125 70.59375 50.363281 70.59375 L 9.003906 70.59375 C 7.160156 70.59375 5.441406 69.675781 4.421875 68.144531 C 3.398438 66.613281 3.210938 64.671875 3.914062 62.972656 L 26.519531 8.539062 C 27.050781 7.261719 28.296875 6.425781 29.683594 6.425781 C 31.066406 6.425781 32.316406 7.261719 32.847656 8.539062 Z M 32.847656 8.539062 " clip-rule="nonzero"/></clipPath><clipPath id="dcaa79ff20"><path d="M 0.464844 0.34375 L 52.902344 0.34375 L 52.902344 64.757812 L 0.464844 64.757812 Z M 0.464844 0.34375 " clip-rule="nonzero"/></clipPath><clipPath id="b618ec0636"><path d="M 29.847656 2.539062 L 52.449219 56.972656 C 53.15625 58.671875 52.964844 60.613281 51.945312 62.144531 C 50.921875 63.675781 49.203125 64.59375 47.363281 64.59375 L 6.003906 64.59375 C 4.160156 64.59375 2.441406 63.675781 1.421875 62.144531 C 0.398438 60.613281 0.210938 58.671875 0.914062 56.972656 L 23.519531 2.539062 C 24.050781 1.261719 25.296875 0.425781 26.683594 0.425781 C 28.066406 0.425781 29.316406 1.261719 29.847656 2.539062 Z M 29.847656 2.539062 " clip-rule="nonzero"/></clipPath><clipPath id="0a666319cf"><rect x="0" width="53" y="0" height="65"/></clipPath><clipPath id="3272546595"><path d="M 208.101562 6.34375 L 260.539062 6.34375 L 260.539062 70.757812 L 208.101562 70.757812 Z M 208.101562 6.34375 " clip-rule="nonzero"/></clipPath><clipPath id="2dac1903bc"><path d="M 237.484375 8.539062 L 260.089844 62.972656 C 260.792969 64.671875 260.605469 66.613281 259.582031 68.144531 C 258.5625 69.675781 256.84375 70.59375 255 70.59375 L 213.640625 70.59375 C 211.800781 70.59375 210.082031 69.675781 209.058594 68.144531 C 208.039062 66.613281 207.847656 64.671875 208.554688 62.972656 L 231.15625 8.539062 C 231.6875 7.261719 232.9375 6.425781 234.320312 6.425781 C 235.707031 6.425781 236.953125 7.261719 237.484375 8.539062 Z M 237.484375 8.539062 " clip-rule="nonzero"/></clipPath><clipPath id="19ced082bd"><path d="M 0.101562 0.34375 L 52.539062 0.34375 L 52.539062 64.757812 L 0.101562 64.757812 Z M 0.101562 0.34375 " clip-rule="nonzero"/></clipPath><clipPath id="7dd1033a87"><path d="M 29.484375 2.539062 L 52.089844 56.972656 C 52.792969 58.671875 52.605469 60.613281 51.582031 62.144531 C 50.5625 63.675781 48.84375 64.59375 47 64.59375 L 5.640625 64.59375 C 3.800781 64.59375 2.082031 63.675781 1.058594 62.144531 C 0.0390625 60.613281 -0.152344 58.671875 0.554688 56.972656 L 23.15625 2.539062 C 23.6875 1.261719 24.9375 0.425781 26.320312 0.425781 C 27.707031 0.425781 28.953125 1.261719 29.484375 2.539062 Z M 29.484375 2.539062 " clip-rule="nonzero"/></clipPath><clipPath id="4fb61e7bad"><rect x="0" width="53" y="0" height="65"/></clipPath><clipPath id="da9796554e"><path d="M 174.050781 6.34375 L 226.488281 6.34375 L 226.488281 70.757812 L 174.050781 70.757812 Z M 174.050781 6.34375 " clip-rule="nonzero"/></clipPath><clipPath id="3233449479"><path d="M 203.433594 8.539062 L 226.035156 62.972656 C 226.742188 64.671875 226.550781 66.613281 225.53125 68.144531 C 224.507812 69.675781 222.789062 70.59375 220.949219 70.59375 L 179.589844 70.59375 C 177.746094 70.59375 176.03125 69.675781 175.007812 68.144531 C 173.984375 66.613281 173.796875 64.671875 174.5 62.972656 L 197.105469 8.539062 C 197.636719 7.261719 198.882812 6.425781 200.269531 6.425781 C 201.652344 6.425781 202.902344 7.261719 203.433594 8.539062 Z M 203.433594 8.539062 " clip-rule="nonzero"/></clipPath><clipPath id="0a57edba76"><path d="M 0.0507812 0.34375 L 52.488281 0.34375 L 52.488281 64.757812 L 0.0507812 64.757812 Z M 0.0507812 0.34375 " clip-rule="nonzero"/></clipPath><clipPath id="4ea95f0a57"><path d="M 29.433594 2.539062 L 52.035156 56.972656 C 52.742188 58.671875 52.550781 60.613281 51.53125 62.144531 C 50.507812 63.675781 48.789062 64.59375 46.949219 64.59375 L 5.589844 64.59375 C 3.746094 64.59375 2.03125 63.675781 1.007812 62.144531 C -0.015625 60.613281 -0.203125 58.671875 0.5 56.972656 L 23.105469 2.539062 C 23.636719 1.261719 24.882812 0.425781 26.269531 0.425781 C 27.652344 0.425781 28.902344 1.261719 29.433594 2.539062 Z M 29.433594 2.539062 " clip-rule="nonzero"/></clipPath><clipPath id="faacdf2d51"><rect x="0" width="53" y="0" height="65"/></clipPath><clipPath id="63218dbbc3"><path d="M 140 6.34375 L 192.433594 6.34375 L 192.433594 70.757812 L 140 70.757812 Z M 140 6.34375 " clip-rule="nonzero"/></clipPath><clipPath id="e5466e5562"><path d="M 169.378906 8.539062 L 191.984375 62.972656 C 192.6875 64.671875 192.5 66.613281 191.476562 68.144531 C 190.453125 69.675781 188.738281 70.59375 186.894531 70.59375 L 145.535156 70.59375 C 143.695312 70.59375 141.976562 69.675781 140.953125 68.144531 C 139.933594 66.613281 139.742188 64.671875 140.449219 62.972656 L 163.050781 8.539062 C 163.582031 7.261719 164.832031 6.425781 166.214844 6.425781 C 167.601562 6.425781 168.847656 7.261719 169.378906 8.539062 Z M 169.378906 8.539062 " clip-rule="nonzero"/></clipPath><clipPath id="6de978f18a"><path d="M 0 0.34375 L 52.433594 0.34375 L 52.433594 64.757812 L 0 64.757812 Z M 0 0.34375 " clip-rule="nonzero"/></clipPath><clipPath id="fc27063f3c"><path d="M 29.378906 2.539062 L 51.984375 56.972656 C 52.6875 58.671875 52.5 60.613281 51.476562 62.144531 C 50.453125 63.675781 48.738281 64.59375 46.894531 64.59375 L 5.535156 64.59375 C 3.695312 64.59375 1.976562 63.675781 0.953125 62.144531 C -0.0664062 60.613281 -0.257812 58.671875 0.449219 56.972656 L 23.050781 2.539062 C 23.582031 1.261719 24.832031 0.425781 26.214844 0.425781 C 27.601562 0.425781 28.847656 1.261719 29.378906 2.539062 Z M 29.378906 2.539062 " clip-rule="nonzero"/></clipPath><clipPath id="be38b83e5b"><rect x="0" width="53" y="0" height="65"/></clipPath><clipPath id="0b31689a44"><path d="M 105.945312 6.34375 L 158.382812 6.34375 L 158.382812 70.757812 L 105.945312 70.757812 Z M 105.945312 6.34375 " clip-rule="nonzero"/></clipPath><clipPath id="30af0261a4"><path d="M 135.328125 8.539062 L 157.929688 62.972656 C 158.636719 64.671875 158.445312 66.613281 157.425781 68.144531 C 156.402344 69.675781 154.683594 70.59375 152.84375 70.59375 L 111.480469 70.59375 C 109.640625 70.59375 107.921875 69.675781 106.902344 68.144531 C 105.878906 66.613281 105.691406 64.671875 106.394531 62.972656 L 129 8.539062 C 129.53125 7.261719 130.777344 6.425781 132.164062 6.425781 C 133.546875 6.425781 134.796875 7.261719 135.328125 8.539062 Z M 135.328125 8.539062 " clip-rule="nonzero"/></clipPath><clipPath id="81984198e5"><path d="M 0.945312 0.34375 L 53.382812 0.34375 L 53.382812 64.757812 L 0.945312 64.757812 Z M 0.945312 0.34375 " clip-rule="nonzero"/></clipPath><clipPath id="a0d0958ecf"><path d="M 30.328125 2.539062 L 52.929688 56.972656 C 53.636719 58.671875 53.445312 60.613281 52.425781 62.144531 C 51.402344 63.675781 49.683594 64.59375 47.84375 64.59375 L 6.480469 64.59375 C 4.640625 64.59375 2.921875 63.675781 1.902344 62.144531 C 0.878906 60.613281 0.691406 58.671875 1.394531 56.972656 L 24 2.539062 C 24.53125 1.261719 25.777344 0.425781 27.164062 0.425781 C 28.546875 0.425781 29.796875 1.261719 30.328125 2.539062 Z M 30.328125 2.539062 " clip-rule="nonzero"/></clipPath><clipPath id="eedb28883d"><rect x="0" width="54" y="0" height="65"/></clipPath><clipPath id="ef4bc4a196"><path d="M 3.296875 65.863281 L 260.214844 65.863281 L 260.214844 262.78125 L 3.296875 262.78125 Z M 3.296875 65.863281 " clip-rule="nonzero"/></clipPath><clipPath id="d505cfa473"><path d="M 88.726562 262.78125 L 175.191406 262.78125 C 176.101562 262.78125 176.921875 262.238281 177.277344 261.398438 L 260.03125 67.242188 C 260.160156 66.9375 260.128906 66.585938 259.945312 66.308594 C 259.761719 66.03125 259.453125 65.863281 259.121094 65.863281 L 4.796875 65.863281 C 4.464844 65.863281 4.15625 66.03125 3.972656 66.308594 C 3.789062 66.585938 3.757812 66.9375 3.886719 67.242188 L 86.640625 261.398438 C 86.996094 262.238281 87.816406 262.78125 88.726562 262.78125 Z M 88.726562 262.78125 " clip-rule="nonzero"/></clipPath><clipPath id="f6dded588d"><path d="M 0.71875 0.863281 L 257.214844 0.863281 L 257.214844 197.78125 L 0.71875 197.78125 Z M 0.71875 0.863281 " clip-rule="nonzero"/></clipPath><clipPath id="e067de114f"><path d="M 85.726562 197.78125 L 172.191406 197.78125 C 173.101562 197.78125 173.921875 197.238281 174.277344 196.398438 L 257.03125 2.242188 C 257.160156 1.9375 257.128906 1.585938 256.945312 1.308594 C 256.761719 1.03125 256.453125 0.863281 256.121094 0.863281 L 1.796875 0.863281 C 1.464844 0.863281 1.15625 1.03125 0.972656 1.308594 C 0.789062 1.585938 0.757812 1.9375 0.886719 2.242188 L 83.640625 196.398438 C 83.996094 197.238281 84.816406 197.78125 85.726562 197.78125 Z M 85.726562 197.78125 " clip-rule="nonzero"/></clipPath><clipPath id="ce6fa0d7f5"><rect x="0" width="258" y="0" height="198"/></clipPath><clipPath id="f799fa64d3"><rect x="0" width="264" y="0" height="353"/></clipPath></defs><g transform="matrix(1, 0, 0, 1, 57, 13)"><g clip-path="url(#f799fa64d3)"><g clip-path="url(#252ff2dc6d)"><g clip-path="url(#8aad2d8c08)"><g transform="matrix(1, 0, 0, 1, 86, 290)"><g clip-path="url(#dbd4e83025)"><g clip-path="url(#caad0768c5)"><g clip-path="url(#57c18a8abe)"><path fill="#ffffff" d="M 0.171875 0.394531 L 91.761719 0.394531 L 91.761719 62.097656 L 0.171875 62.097656 Z M 0.171875 0.394531 " fill-opacity="1" fill-rule="nonzero"/></g></g></g></g></g></g><g clip-path="url(#bad931c948)"><g clip-path="url(#221c8844a2)"><g transform="matrix(1, 0, 0, 1, 71, 6)"><g clip-path="url(#7e7ed7c427)"><g clip-path="url(#c6019e0a17)"><g clip-path="url(#5b137b3bf7)"><path fill="#ffffff" d="M -1.820312 -5.082031 L 56.039062 -5.082031 L 56.039062 64.535156 L -1.820312 64.535156 Z M -1.820312 -5.082031 " fill-opacity="1" fill-rule="nonzero"/></g></g></g></g></g></g><g clip-path="url(#e3821dc69f)"><g clip-path="url(#1d8209d77c)"><g transform="matrix(1, 0, 0, 1, 37, 6)"><g clip-path="url(#9ea4ae434d)"><g clip-path="url(#0138e0b24d)"><g clip-path="url(#556e08e96b)"><path fill="#ffffff" d="M -1.875 -5.082031 L 55.988281 -5.082031 L 55.988281 64.535156 L -1.875 64.535156 Z M -1.875 -5.082031 " fill-opacity="1" fill-rule="nonzero"/></g></g></g></g></g></g><g clip-path="url(#76b7afd902)"><g clip-path="url(#f3aac82c31)"><g transform="matrix(1, 0, 0, 1, 3, 6)"><g clip-path="url(#0a666319cf)"><g clip-path="url(#dcaa79ff20)"><g clip-path="url(#b618ec0636)"><path fill="#ffffff" d="M -2.246094 -5.082031 L 55.613281 -5.082031 L 55.613281 64.535156 L -2.246094 64.535156 Z M -2.246094 -5.082031 " fill-opacity="1" fill-rule="nonzero"/></g></g></g></g></g></g><g clip-path="url(#3272546595)"><g clip-path="url(#2dac1903bc)"><g transform="matrix(1, 0, 0, 1, 208, 6)"><g clip-path="url(#4fb61e7bad)"><g clip-path="url(#19ced082bd)"><g clip-path="url(#7dd1033a87)"><path fill="#ffffff" d="M -2.609375 -5.082031 L 55.25 -5.082031 L 55.25 64.535156 L -2.609375 64.535156 Z M -2.609375 -5.082031 " fill-opacity="1" fill-rule="nonzero"/></g></g></g></g></g></g><g clip-path="url(#da9796554e)"><g clip-path="url(#3233449479)"><g transform="matrix(1, 0, 0, 1, 174, 6)"><g clip-path="url(#faacdf2d51)"><g clip-path="url(#0a57edba76)"><g clip-path="url(#4ea95f0a57)"><path fill="#ffffff" d="M -2.660156 -5.082031 L 55.199219 -5.082031 L 55.199219 64.535156 L -2.660156 64.535156 Z M -2.660156 -5.082031 " fill-opacity="1" fill-rule="nonzero"/></g></g></g></g></g></g><g clip-path="url(#63218dbbc3)"><g clip-path="url(#e5466e5562)"><g transform="matrix(1, 0, 0, 1, 140, 6)"><g clip-path="url(#be38b83e5b)"><g clip-path="url(#6de978f18a)"><g clip-path="url(#fc27063f3c)"><path fill="#ffffff" d="M -2.714844 -5.082031 L 55.144531 -5.082031 L 55.144531 64.535156 L -2.714844 64.535156 Z M -2.714844 -5.082031 " fill-opacity="1" fill-rule="nonzero"/></g></g></g></g></g></g><g clip-path="url(#0b31689a44)"><g clip-path="url(#30af0261a4)"><g transform="matrix(1, 0, 0, 1, 105, 6)"><g clip-path="url(#eedb28883d)"><g clip-path="url(#81984198e5)"><g clip-path="url(#a0d0958ecf)"><path fill="#ffffff" d="M -1.769531 -5.082031 L 56.09375 -5.082031 L 56.09375 64.535156 L -1.769531 64.535156 Z M -1.769531 -5.082031 " fill-opacity="1" fill-rule="nonzero"/></g></g></g></g></g></g><g clip-path="url(#ef4bc4a196)"><g clip-path="url(#d505cfa473)"><g transform="matrix(1, 0, 0, 1, 3, 65)"><g clip-path="url(#ce6fa0d7f5)"><g clip-path="url(#f6dded588d)"><g clip-path="url(#e067de114f)"><path fill="#ffffff" d="M 0.296875 0.863281 L 257.984375 0.863281 L 257.984375 197.78125 L 0.296875 197.78125 Z M 0.296875 0.863281 " fill-opacity="1" fill-rule="nonzero"/></g></g></g></g></g></g></g></g></svg>